<svg xmlns="http://www.w3.org/2000/svg" width="360" height="360" viewBox="-25 -215 240 240" font-family="monospace" font-size="7pt" dominant-baseline="middle" text-anchor="middle">
<g stroke="#333" fill="#333">
<line x1="0" y1="-130" x2="190" y2="-60" />
<line x1="0" y1="-130" x2="130" y2="0" />
<line x1="130" y1="0" x2="190" y2="-60" />
<polyline points="124,-6 130,-12 136,-6" fill="none" />
<path d="M 0 -106 A 15 15 0 0 0 17 -113" fill="none" />
<text stroke="none" x="6" y="-113">θ</text>
<circle cx="95" cy="-95" r="1" />
<circle cx="95" cy="-95" r="101.24" fill="none" stroke-dasharray="2 1" />
<text stroke="none" x="95" y="-170">0 = ax² + bx + c</text>
<text stroke="none" x="95" y="-155">↓</text>
<text stroke="none" x="95" y="-140">x = tan θ</text>
</g>
<g stroke="#00c" fill="#00c">
<line x1="190" x2="190" y1="0" y2="-60" />
<circle cx="190" cy="-60" r="1" />
<text stroke="none" x="198" y="-30">c</text>
</g>
<g stroke="#fa0" fill="#fa0">
<line x1="0" x2="0" y1="0" y2="-130" />
<circle cx="0" cy="-130" r="1" />
<text stroke="none" x="-8" y="-65">a</text>
</g>
<g stroke="#c00" fill="#c00">
<line x1="0" x2="190" y1="0" y2="0" />
<circle cx="190" cy="0" r="1" />
<text stroke="none" x="95" y="12">-b</text>
</g>
</svg>
