<svg xmlns="http://www.w3.org/2000/svg" width="600" height="420" viewBox="-136.92 -265 400 280" font-family="monospace" font-size="7pt" dominant-baseline="middle" text-anchor="middle">
<g stroke="#ccc" fill="#ccc">
<line x1="0" y1="500" x2="0" y2="-500" />
<line x1="500" y1="0" x2="-500" y2="0" />
<text stroke="none" x="-14" y="8">(0,0)</text>
<text stroke="none" x="258" y="8">X</text>
<text stroke="none" x="-6" y="-258">Y</text>
</g>
<g stroke="#333" fill="#333">
<line x1="0" y1="-19.23" x2="146.15" y2="-240.00" stroke-dasharray="2 1" />
<text stroke="none" x="73" y="-137">A</text>
<text stroke="none" x="77" y="-138">＊</text>
<circle cx="73.08" cy="-129.62" r="1" />
<line x1="0" y1="-19.23" x2="30.00" y2="0" />
<line x1="30.00" y1="0" x2="146.15" y2="-181.20" />
<line x1="0" y1="-19.23" x2="146.15" y2="-181.20" />
<polyline points="24.42,-3.14 28.48,-8.44 32.77,-4.93" fill="none" />
<path d="M 50 0 A 12 12 0 0 0 40 -15" fill="none" />
<text stroke="none" x="42" y="-5">θ</text>
</g>
<g stroke="#00c" fill="#00c">
<line x1="146.15" x2="146.15" y1="0" y2="-240.00" />
<circle cx="146.15" cy="-240.00" r="1" />
<circle cx="146.15" cy="-181.20" r="1" />
<text stroke="none" x="140" y="-70" transform="rotate(-90 140 -70)">-4(ax²+bx)</text>
<text stroke="none" x="140" y="-205" transform="rotate(-90 140 -205)">4f(x)</text>
<text stroke="none" x="155" y="-110">4c</text>
</g>
<g stroke="#fa0" fill="#fa0">
<line x1="0" x2="0" y1="0" y2="-19.23" />
<circle cx="0" cy="-19.23" r="1" />
<text stroke="none" x="-14" y="-9">1/4a</text>
</g>
<g stroke="#c00" fill="#c00">
<line x1="0" x2="146.15" y1="0" y2="0" />
<circle cx="146.15" cy="0" r="1" />
<circle cx="30.00" cy="0" r="1" />
<text stroke="none" x="9" y="-5">x</text>
<text stroke="none" x="100" y="-5">-(x+b/a)</text>
<text stroke="none" x="73" y="8">-b/a</text>
</g>
</svg>
