<!-- base svg from github/lipis/flag-icons -->
<svg xmlns="http://www.w3.org/2000/svg" viewBox="0 0 640 480">

  <clipPath id="clip-first"><polygon points="0,0 512,0 0,512" /> </clipPath>
  <clipPath id="clip-second"><polygon points="512,512 512,0 0,512" /></clipPath>

  <g id="gb" clip-path="url(#clip-first)">
    <path fill="#012169" d="M0 0h640v480H0z"/>
    <path fill="#FFF" d="m75 0 244 181L562 0h78v62L400 241l240 178v61h-80L320 301 81 480H0v-60l239-178L0 64V0h75z"/>
    <path fill="#C8102E" d="m424 281 216 159v40L369 281h55zm-184 20 6 35L54 480H0l240-179zM640 0v3L391 191l2-44L590 0h50zM0 0l239 176h-60L0 42V0z"/>
    <path fill="#FFF" d="M241 0v480h160V0H241zM0 160v160h640V160H0z"/>
    <path fill="#C8102E" d="M0 193v96h640v-96H0zM273 0v480h96V0h-96z"/>
  </g>

  <g id="th" clip-path="url(#clip-second)" fill-rule="evenodd">
    <path fill="#f4f5f8" d="M0 0h640v480H0z"/>
    <path fill="#2d2a4a" d="M0 162.5h640v160H0z"/>
    <path fill="#a51931" d="M0 0h640v82.5H0zm0 400h640v80H0z"/>
  </g>

</svg>
